# xmcd
#
# Track frame offsets: 
#        150
#        19275
#        36750
#        56163
#        73138
#        93550
#        111938
#        131250
#        149650
#        167100
#        184638
#        200338
#        222775
#        238888
#
# Disc length: 3366 seconds
#
# Revision: 0
# Processed by: cddbd v1.5.2PL0 Copyright (c) Steve Scherf et al.
# Submitted via: ExactAudioCopy v0.95a5
#
DISCID=d60d240e
DTITLE=Kenny Gamble - Sentimental Sax Vol.2
DYEAR=1994
DGENRE=Ballad
TTITLE0=A whole new world
TTITLE1=Tears in heaven
TTITLE2=Right here waiting
TTITLE3=To love somebody
TTITLE4=I will be here for you
TTITLE5=Within you remain
TTITLE6=Love is
TTITLE7=It must have been love
TTITLE8=Always
TTITLE9=Wonderful tonight
TTITLE10=Desperado
TTITLE11=Another day
TTITLE12=Longer
TTITLE13=Sealed with a kiss
EXTD=
EXTT0=
EXTT1=
EXTT2=
EXTT3=
EXTT4=
EXTT5=
EXTT6=
EXTT7=
EXTT8=
EXTT9=
EXTT10=
EXTT11=
EXTT12=
EXTT13=
PLAYORDER=
